<svg width="296" height="162" viewBox="0 0 296 162" fill="none" xmlns="http://www.w3.org/2000/svg">
<rect x="0.5" y="0.5" width="295" height="161" rx="3.5" fill="#EEEEEE" stroke="#D0D0D0" stroke-dasharray="8 8"/>
<path d="M155 77.4238H141C139.895 77.4238 139 78.2978 139 79.3758V93.0398C139 94.1179 139.895 94.9918 141 94.9918H155C156.105 94.9918 157 94.1179 157 93.0398V79.3758C157 78.2978 156.105 77.4238 155 77.4238Z" stroke="#151515" stroke-width="2" stroke-linecap="round" stroke-linejoin="round"/>
<path d="M157 89.1359L152 84.2559L141 94.9919" stroke="#151515" stroke-width="2" stroke-linecap="round" stroke-linejoin="round"/>
<path d="M144.5 84.2561C145.328 84.2561 146 83.6007 146 82.7921C146 81.9836 145.328 81.3281 144.5 81.3281C143.672 81.3281 143 81.9836 143 82.7921C143 83.6007 143.672 84.2561 144.5 84.2561Z" stroke="#151515" stroke-width="2" stroke-linecap="round" stroke-linejoin="round"/>
</svg>
